<svg id="Layer_1" data-name="Layer 1" xmlns="http://www.w3.org/2000/svg" viewBox="0 0 564.78 974.3"><defs><style>.cls-1{fill:#303030;}.cls-2{fill:#3f3f3f;}.cls-3{fill:#009246;}.cls-4{fill:#ce2b37;}.cls-5{fill:#fff;}</style></defs><title>Lig logo final-03</title><polygon class="cls-1" points="564.78 489.12 282.39 652.15 75.66 532.8 564.78 420.29 564.78 489.12"/><polygon class="cls-2" points="347.43 457.47 59.78 523.63 0 489.12 0 163.04 45.41 136.82 347.43 457.47"/><polygon class="cls-3" points="56.53 130.4 282.39 0 327.91 26.28 179.73 261.2 56.53 130.4"/><polygon class="cls-4" points="564.78 407.47 361.54 454.22 278.17 365.71 564.78 237.8 564.78 407.47"/><polygon class="cls-2" points="188.57 270.59 338.74 32.53 564.78 163.04 564.78 224.35 269.01 355.98 188.57 270.59"/><polygon class="cls-5" points="552.29 216.24 552.29 170.25 342.9 49.36 204.31 269.07 272.02 340.96 552.29 216.24"/><polygon class="cls-2" points="45.68 974.13 221.08 974.13 233.22 924.02 116.67 924.02 170.54 700.37 111.66 700.37 45.68 974.13"/><path class="cls-4" d="M638.18,935.59q-4.94.77-11,1.33t-13.67.57q-27.33,0-41.19-15.38t-13.86-48.78a133.46,133.46,0,0,1,6.45-41.76,104,104,0,0,1,19-34.74,91,91,0,0,1,30.56-23.73q18-8.73,41.19-8.73a109.47,109.47,0,0,1,29.42,4.18,107,107,0,0,1,28.28,12.53l21.26-45.94A124.51,124.51,0,0,0,698,719.19a152.44,152.44,0,0,0-38.53-5.32q-39.49,0-69.85,14.43a168.37,168.37,0,0,0-31.35,19.18L511.72,940.31A87.75,87.75,0,0,0,524.66,958a90.58,90.58,0,0,0,34,22.21Q578.94,988,605.53,988q31.13,0,51.25-4t30.75-8.16l31.89-131.74H660.2Z" transform="translate(-210.15 -14)"/><polygon class="cls-3" points="334.76 700.37 275.43 700.37 226.98 903.32 259.54 903.32 242.33 974.3 268.69 974.3 334.76 700.37"/></svg>