<svg id="Layer_1" data-name="Layer 1" xmlns="http://www.w3.org/2000/svg" viewBox="0 0 564.78 650.78">
    <defs>
        <style>.cls-1{fill:#303030;}.cls-2{fill:#3f3f3f;}.cls-3{fill:#009246;}.cls-4{fill:#ce2b37;}.cls-5{fill:#fff;}
        </style>
    </defs>
    <title>Lig logo final-03</title>
    <polygon class="cls-1" points="564.78 489.12 282.39 652.15 75.66 532.8 564.78 420.29 564.78 489.12"/>
    <polygon class="cls-2" points="347.43 457.47 59.78 523.63 0 489.12 0 163.04 45.41 136.82 347.43 457.47"/>
    <polygon class="cls-3" points="56.53 130.4 282.39 0 327.91 26.28 179.73 261.2 56.53 130.4"/>
    <polygon class="cls-4" points="564.78 407.47 361.54 454.22 278.17 365.71 564.78 237.8 564.78 407.47"/>
    <polygon class="cls-2" points="188.57 270.59 338.74 32.53 564.78 163.04 564.78 224.35 269.01 355.98 188.57 270.59"/>
    <polygon class="cls-5" points="552.29 216.24 552.29 170.25 342.9 49.36 204.31 269.07 272.02 340.96 552.29 216.24"/>

</svg>